<svg width="12" height="20" viewBox="0 0 12 20" fill="none" xmlns="http://www.w3.org/2000/svg"><path d="M5.875 3.02543c1.19572 0 2.16814.95877 2.16814 2.13769 0 1.17538-.97242 2.13414-2.16814 2.13414-1.19572 0-2.16813-.95876-2.16813-2.13414 0-1.17892.97241-2.13769 2.16813-2.13769Zm0 7.29727c2.88845 0 5.2367-2.31524 5.2367-5.15958C11.1117 2.31524 8.76345 0 5.875 0 2.98655 0 .641942 2.31524.641942 5.16312c0 2.84434 2.344608 5.15958 5.233058 5.15958Zm2.11771 4.2115c1.06606-.2415 2.09249-.657 3.03969-1.2429.7167-.4439.9328-1.3778.4826-2.0844-.4538-.7102-1.3974-.9233-2.11768-.4758-2.14292 1.328-4.90172 1.328-7.04824 0-.71671-.4475-1.663918-.2344-2.114112.4758-.450195.7066-.2341024 1.6405.482607 2.0844.947205.5859 1.973655 1.0014 3.039715 1.2429L.829223 17.4176c-.597858.5894-.597858 1.5482 0 2.1376.302527.2948.691497.4439 1.084067.4439.39257 0 .78514-.1491 1.08767-.4439L5.875 16.7216l2.87764 2.8336c.59786.5931 1.56666.5931 2.16816 0 .5978-.5894.5978-1.5482 0-2.1376l-2.92809-2.8834Z" fill="#F9FBFD"/></svg>