<svg width="18" height="22" viewBox="0 0 18 22" fill="none" xmlns="http://www.w3.org/2000/svg"><path d="M15.364 15.5563 9 22l-6.364-6.4437C1.37734 14.2819.520187 12.6581.172928 10.8905-.17433 9.12277.00390685 7.29051.685099 5.62539 1.36629 3.96027 2.51984 2.53707 3.99988 1.53576 5.47992.534448 7.21998 0 9 0c1.78 0 3.5201.534448 5.0001 1.53576 1.4801 1.00131 2.6336 2.42451 3.3148 4.08963.6812 1.66512.8594 3.49738.5122 5.26511-.3473 1.7676-1.2044 3.3914-2.4631 4.6658ZM9 11.1377c.53044 0 1.0391-.2134 1.4142-.5932.3751-.3797.5858-.89481.5858-1.43188 0-.53708-.2107-1.05215-.5858-1.43192-.3751-.37977-.88376-.59313-1.4142-.59313-.53043 0-1.03914.21336-1.41421.59313C7.21072 8.06047 7 8.57554 7 9.11262c0 .53707.21072 1.05218.58579 1.43188.37507.3798.88378.5932 1.41421.5932Z" fill="#011C40"/></svg>