<svg width="20" height="20" viewBox="0 0 20 20" fill="none" xmlns="http://www.w3.org/2000/svg"><path d="M11.9453 0c-.6413 0-1.2432.325343-1.6292.794521-.38601.469179-.59878 1.041099-.75379 1.643839-.2462.96917-.32219 2.04452-.34043 3.01369-1.80244.11987-3.43466.65411-4.79029 1.47946-.55016-.46233-1.21277-.71918-1.84803-.71233-.72341.00685-1.41034.31849-1.920984.9589-.975688 1.2226-.863225 3.22262.267478 4.41092-.069909.3665-.121581.7432-.121581 1.1233C.808473 16.7397 4.92399 20 10 20c5.076 0 9.1915-3.2637 9.1915-7.2877 0-.3801-.0516-.7568-.1216-1.1233 1.1307-1.1883 1.2432-3.18832.2675-4.41092-.5106-.64041-1.1975-.95205-1.921-.9589-.6352-.00685-1.2978.25-1.848.71233-1.3495-.82192-2.9726-1.35617-4.766-1.47946.0244-.89383.0882-1.82191.2675-2.52054.1125-.43836.2462-.75685.3891-.93151.1428-.17466.2462-.24658.4863-.24658.5198 0 .5866.16781.8997.57535.1581.20548.3404.46233.6322.71233s.7234.46575 1.1915.46575V1.75342c-.1307 0-.155-.00342-.2431-.08219-.0882-.07876-.2098-.26027-.3891-.49315C13.6778.708904 12.9818 0 11.9453 0Zm5.0578.164384c-1.2098 0-2.1885 1.102736-2.1885 2.465756 0 1.36301.9787 2.46575 2.1885 2.46575 1.2097 0 2.1884-1.10274 2.1884-2.46575 0-1.36302-.9787-2.465756-2.1884-2.465756Zm0 .876716c.7781 0 1.4103.71232 1.4103 1.58904 0 .87671-.6322 1.58904-1.4103 1.58904-.7781 0-1.4104-.71233-1.4104-1.58904 0-.87672.6323-1.58904 1.4104-1.58904ZM10 6.82192c4.307 0 7.9514 2.70205 7.9514 5.89038 0 3.1918-3.6444 5.8904-7.9514 5.8904-4.30701 0-7.9514-2.6986-7.9514-5.8904 0-3.18833 3.64439-5.89038 7.9514-5.89038Zm-7.39213.79452c.21581.00342.44073.05822.65654.16438-.78116.66781-1.40122 1.43493-1.82372 2.30138-.29179-.67809-.21276-1.52398.1459-1.97261.2614-.32877.6231-.49658 1.02128-.49315Zm14.78423 0c.3982-.00343.7599.16438 1.0213.49315.3587.44863.4377 1.29452.1459 1.97261-.4225-.86645-1.0426-1.63357-1.8237-2.30138.2158-.10616.4407-.16096.6565-.16438ZM6.88753 9.80822c-.77812 0-1.41034.71228-1.41034 1.58908 0 .8767.63222 1.589 1.41034 1.589.77811 0 1.41033-.7123 1.41033-1.589 0-.8768-.63222-1.58908-1.41033-1.58908Zm6.22497 0c-.7781 0-1.4104.71228-1.4104 1.58908 0 .8767.6323 1.589 1.4104 1.589.7781 0 1.4103-.7123 1.4103-1.589 0-.8768-.6322-1.58908-1.4103-1.58908ZM6.13372 15.2055c.49545 1.1541 2.02737 2.274 3.86628 2.274 1.8389 0 3.3952-1.1199 3.8906-2.274-.8997.6541-2.3192 1.0959-3.8906 1.0959-1.57143 0-2.96658-.4418-3.86628-1.0959Z" fill="#F9FBFD"/></svg>