<svg xmlns="http://www.w3.org/2000/svg" xmlns:xlink="http://www.w3.org/1999/xlink"><symbol id="advantage-everything" viewBox="0 0 38 32"><g fill="none"><path d="M28.7534 3.37533 26.4398 0 16.0732 15.1353l2.3136 3.3753L28.7534 3.37533ZM35.6945 0 18.3787 25.2494l-6.8185-9.9471-2.31364 3.3753L18.3787 32 38 3.37533 35.6945 0ZM0 18.6776 9.1321 32l2.3137-3.3753-9.13212-13.3224L0 18.6776Z" fill="#011C40"/></g></symbol><symbol id="advantage-excursion" viewBox="0 0 44 32"><g fill="none"><path d="M41.4386 25.7195 1.64777 17.2126c-.30576-.0654-.51184.5635-.35346 1.0644C3.83755 26.326 9.85818 32 16.8667 32h23.7374c.1613 0 .3028-.1989.3505-.4911l.7935-4.8935c.0674-.4159-.0814-.8472-.3095-.8959ZM43.8843 11.771c-.1166-.345-.3065-.5746-.5199-.6289L32.3643 8.35935c-.3967-.09881-.77.43404-.8242 1.19516-.0542.76109.2288 1.46239.6299 1.56379l1.2453.3146c.1818.0459.3182.3409.3182.6887v2.1511c0 .4132-.1892.736-.4055.6915l-2.9333-.5969c-.1863-.0362-.3278-.3354-.3278-.6902V7.58714c0-.13778.0212-.27132.0616-.38546l1.2818-3.64809c.1467-.41741.1636-.95173.0448-1.39832-.1195-.44806-.3564-.74025-.6204-.76389l-15.4-1.39131457c-.2472-.00423932-.4869.19761757-.6314.58160157 0 0-2.9304 7.813873-3.5728 9.533533-.077.206-.2061.3159-.3381.288L.811081 8.35527c-.208227-.04174-.413619.08495-.568307.34779C.0887737 8.96752 0 9.34319 0 9.73826c0 1.33994.0916956 2.65334.264774 3.92794.038157.2811.167235.4855.319001.5189L42.015 23.0425c.1752.0375.3395-.1669.3916-.487l1.5613-9.6255c.063-.3909.0323-.8153-.0836-1.159ZM21.1626 4.06427l-.572 7.59963c-.0278.3687-.2002.6317-.396.5941-1.4307-.274-6.8061-1.3467-6.8061-1.3467-.2787-.0571-.4224-.6624-.2596-1.0964l2.519-6.69111c.0726-.19207.1914-.30197.3161-.29072l4.8532.43828c.2156.0194.3762.38659.3454.79292Zm7.9501 1.01433-.451 1.28011c-.0403.11414-.0616.24898-.0616.38676v6.48513c0 .4132-.1892.7361-.4055.6915l-5.8198-1.1826c-.2061-.0417-.3535-.4007-.3242-.7903l.5932-7.87923c.0264-.3548.1914-.61356.3807-.59693l5.8007.52454c.2846.02494.4459.63019.2875 1.08102Zm9.0207 10.0888c0 .4131-.1892.736-.4055.6915 0 0-1.5224-.3257-2.2044-.4786-.1848-.0403-.3234-.3382-.3234-.6902v-2.0119c0-.4201.1951-.7458.4151-.6902l2.2.5565c.1819.0473.3182.3423.3182.6902v1.9327Zm4.0503-.6985-.2721 1.6751c-.0513.3173-.2148.5218-.3894.4871l-1.595-.3242c-.1855-.0375-.3271-.3367-.3271-.6915v-1.8227c0-.4202.1951-.7458.4151-.6902l1.8663.4717c.2244.0571.3689.4829.3022.8947Z" fill="#011C40"/></g></symbol><symbol id="advantage-liner" viewBox="0 0 27 32"><g fill="none"><path d="m4.40549 16.3962 8.81101-6.46044c.1997-.12946.4546-.12946.6543 0l8.8546 6.46044V8.68818c.0485-1.05698-.7511-1.95388-1.7858-2.00334-.0154-.00077-.0307-.00128-.0462-.00162H6.23749c-1.0356.02345-1.85655.89997-1.83359 1.95788.00033.0157.00083.03139.00159.04708v7.70802ZM15.7464 0h-4.3619v5.34662h4.3619V0Z" fill="#011C40"/><path d="M24.2956 30.1638 27 21.03l-3.7948-2.7178-.2618-.1337-8.9418-6.3713v18.8022h-.4799l-.8288-.0445V11.8072L0 21.03l2.79163 9.0893 1.61227 1.8711h2.75427s5.08853.0066 6.36363 0c1.298.0216 3.6033 0 3.6033 0h5.6876l1.4829-1.8266Z" fill="#011C40"/></g></symbol><symbol id="logo" viewBox="0 0 70 38"><g fill="none"><path fill-rule="evenodd" clip-rule="evenodd" d="M.903517 31.125 14.6726 12.5429l3.7669 2.0131L27.4026 0l5.5853 6.65881 2.0786-1.70349 8.0534 10.22018 5.7156-6.81359L64.8126 31.125 49.42 11.7689l-2.3383 8.1295 2.1433 6.4265L35.456 7.35558l-.1491 6.47232 7.813 17.2971L28.5064 4.33574l4.2218 14.47876-5.9101-14.09158-3.2475 9.36868.6492-6.11688-8.1185 22.06638.974-9.2911-3.3772-3.7162L.903517 31.125Z" fill="#F9FBFD"/><path fill-rule="evenodd" clip-rule="evenodd" d="M69.4414 34.0314C47.641 16.428 13.7091 40.6289 0 31.2961c15.0723 13.2254 50.3019-9.1317 69.4414 2.7353Z" fill="#F9FBFD"/><path fill-rule="evenodd" clip-rule="evenodd" d="M70 35.4157c-17.1044-10.8986-42.5432 4.2681-55.5811.756 14.1278 6.8566 40.4293-8.3356 55.5811-.756Z" fill="#F9FBFD"/></g></symbol><symbol id="marker" viewBox="0 0 18 22"><g fill="none"><path d="M15.364 15.5563 9 22l-6.364-6.4437C1.37734 14.2819.520187 12.6581.172928 10.8905-.17433 9.12277.00390685 7.29051.685099 5.62539 1.36629 3.96027 2.51984 2.53707 3.99988 1.53576 5.47992.534448 7.21998 0 9 0c1.78 0 3.5201.534448 5.0001 1.53576 1.4801 1.00131 2.6336 2.42451 3.3148 4.08963.6812 1.66512.8594 3.49738.5122 5.26511-.3473 1.7676-1.2044 3.3914-2.4631 4.6658ZM9 11.1377c.53044 0 1.0391-.2134 1.4142-.5932.3751-.3797.5858-.89481.5858-1.43188 0-.53708-.2107-1.05215-.5858-1.43192-.3751-.37977-.88376-.59313-1.4142-.59313-.53043 0-1.03914.21336-1.41421.59313C7.21072 8.06047 7 8.57554 7 9.11262c0 .53707.21072 1.05218.58579 1.43188.37507.3798.88378.5932 1.41421.5932Z" fill="#011C40"/></g></symbol><symbol id="phone" viewBox="0 0 18 18"><g fill="none"><path d="M18 13.42v3.536c.0001.2532-.0958.497-.2684.6822-.1726.1852-.409.2981-.6616.3158-.437.03-.794.046-1.07.046C7.163 18 0 10.837 0 2c0-.276.015-.633.046-1.07C.0637224.677444.176581.441011.361804.268409.547026.0958068.790823-.00011443 1.044 2.6e-7H4.58c.12404-.0001256.2437.04585874.33573.12901974.09203.083162.14987.197563.16227.32098.023.23.044.413.064.552.19873 1.38692.606 2.73583 1.208 4.001.095.2.033.439-.147.567L4.045 7.112c1.31945 3.0745 3.76955 5.5245 6.844 6.844l1.54-2.154c.0629-.088.1548-.1511.2595-.1783.1047-.0273.2157-.0169.3135.0293 1.265.6009 2.6136 1.0071 4 1.205.139.02.322.042.55.064.1232.0126.2374.0706.3204.1626.0829.092.1288.2115.1286.3354H18Z" fill="#011C40"/></g></symbol><symbol id="socials-ok" viewBox="0 0 12 20"><g fill="none"><path d="M5.875 3.02543c1.19572 0 2.16814.95877 2.16814 2.13769 0 1.17538-.97242 2.13414-2.16814 2.13414-1.19572 0-2.16813-.95876-2.16813-2.13414 0-1.17892.97241-2.13769 2.16813-2.13769Zm0 7.29727c2.88845 0 5.2367-2.31524 5.2367-5.15958C11.1117 2.31524 8.76345 0 5.875 0 2.98655 0 .641942 2.31524.641942 5.16312c0 2.84434 2.344608 5.15958 5.233058 5.15958Zm2.11771 4.2115c1.06606-.2415 2.09249-.657 3.03969-1.2429.7167-.4439.9328-1.3778.4826-2.0844-.4538-.7102-1.3974-.9233-2.11768-.4758-2.14292 1.328-4.90172 1.328-7.04824 0-.71671-.4475-1.663918-.2344-2.114112.4758-.450195.7066-.2341024 1.6405.482607 2.0844.947205.5859 1.973655 1.0014 3.039715 1.2429L.829223 17.4176c-.597858.5894-.597858 1.5482 0 2.1376.302527.2948.691497.4439 1.084067.4439.39257 0 .78514-.1491 1.08767-.4439L5.875 16.7216l2.87764 2.8336c.59786.5931 1.56666.5931 2.16816 0 .5978-.5894.5978-1.5482 0-2.1376l-2.92809-2.8834Z" fill="#F9FBFD"/></g></symbol><symbol id="socials-reddit" viewBox="0 0 20 20"><g fill="none"><path d="M11.9453 0c-.6413 0-1.2432.325343-1.6292.794521-.38601.469179-.59878 1.041099-.75379 1.643839-.2462.96917-.32219 2.04452-.34043 3.01369-1.80244.11987-3.43466.65411-4.79029 1.47946-.55016-.46233-1.21277-.71918-1.84803-.71233-.72341.00685-1.41034.31849-1.920984.9589-.975688 1.2226-.863225 3.22262.267478 4.41092-.069909.3665-.121581.7432-.121581 1.1233C.808473 16.7397 4.92399 20 10 20c5.076 0 9.1915-3.2637 9.1915-7.2877 0-.3801-.0516-.7568-.1216-1.1233 1.1307-1.1883 1.2432-3.18832.2675-4.41092-.5106-.64041-1.1975-.95205-1.921-.9589-.6352-.00685-1.2978.25-1.848.71233-1.3495-.82192-2.9726-1.35617-4.766-1.47946.0244-.89383.0882-1.82191.2675-2.52054.1125-.43836.2462-.75685.3891-.93151.1428-.17466.2462-.24658.4863-.24658.5198 0 .5866.16781.8997.57535.1581.20548.3404.46233.6322.71233s.7234.46575 1.1915.46575V1.75342c-.1307 0-.155-.00342-.2431-.08219-.0882-.07876-.2098-.26027-.3891-.49315C13.6778.708904 12.9818 0 11.9453 0Zm5.0578.164384c-1.2098 0-2.1885 1.102736-2.1885 2.465756 0 1.36301.9787 2.46575 2.1885 2.46575 1.2097 0 2.1884-1.10274 2.1884-2.46575 0-1.36302-.9787-2.465756-2.1884-2.465756Zm0 .876716c.7781 0 1.4103.71232 1.4103 1.58904 0 .87671-.6322 1.58904-1.4103 1.58904-.7781 0-1.4104-.71233-1.4104-1.58904 0-.87672.6323-1.58904 1.4104-1.58904ZM10 6.82192c4.307 0 7.9514 2.70205 7.9514 5.89038 0 3.1918-3.6444 5.8904-7.9514 5.8904-4.30701 0-7.9514-2.6986-7.9514-5.8904 0-3.18833 3.64439-5.89038 7.9514-5.89038Zm-7.39213.79452c.21581.00342.44073.05822.65654.16438-.78116.66781-1.40122 1.43493-1.82372 2.30138-.29179-.67809-.21276-1.52398.1459-1.97261.2614-.32877.6231-.49658 1.02128-.49315Zm14.78423 0c.3982-.00343.7599.16438 1.0213.49315.3587.44863.4377 1.29452.1459 1.97261-.4225-.86645-1.0426-1.63357-1.8237-2.30138.2158-.10616.4407-.16096.6565-.16438ZM6.88753 9.80822c-.77812 0-1.41034.71228-1.41034 1.58908 0 .8767.63222 1.589 1.41034 1.589.77811 0 1.41033-.7123 1.41033-1.589 0-.8768-.63222-1.58908-1.41033-1.58908Zm6.22497 0c-.7781 0-1.4104.71228-1.4104 1.58908 0 .8767.6323 1.589 1.4104 1.589.7781 0 1.4103-.7123 1.4103-1.589 0-.8768-.6322-1.58908-1.4103-1.58908ZM6.13372 15.2055c.49545 1.1541 2.02737 2.274 3.86628 2.274 1.8389 0 3.3952-1.1199 3.8906-2.274-.8997.6541-2.3192 1.0959-3.8906 1.0959-1.57143 0-2.96658-.4418-3.86628-1.0959Z" fill="#F9FBFD"/></g></symbol><symbol id="socials-zen" viewBox="0 0 20 20"><g fill="none"><path d="M19.5586 9.55711h.0048c.1218 0 .238-.05109.3205-.14059.0838-.09082.1253-.21263.1144-.33576-.4384-4.82151-4.2554-8.640121-9.0771-9.07935297-.1223-.00960547-.2454.03012627-.3362.11439297-.0908.083829-.1414.202151-.1401.325712.0759 6.407728.9212 9.026088 9.1137 9.115598Zm0 .88549c-8.1925.0895-9.0373 2.7078-9.1133 9.1155-.0013.1236.0493.2419.1402.3258.0812.0746.1873.1161.2964.1161.0131 0 .0266-.0004.0397-.0017 4.8217-.4393 8.6388-4.2575 9.0767-9.0794.0109-.1231-.0302-.2449-.1144-.3358-.0843-.0908-.2017-.1357-.3253-.1405ZM9.04954.00359014C4.24316.455484.438304 4.27322.0021535 9.08163c-.01091468.12313.0301245.24495.1143855.33576.082515.08951.199084.14015.320455.14015h.005239C8.60772 9.46367 9.45077 6.84662 9.52761.443259c.00131-.123562-.04977-.24232-.14058-.32615-.09169-.0838292-.21437-.12487078-.33749-.11351886ZM.441797 10.4421c-.135779-.0153-.242306.0494-.325694.1402-.0838249.0908-.12530073.2126-.11438606.3357C.437867 15.7264 4.24316 19.5442 9.04954 19.9961c.01354.0013.02751.0017.04104.0017.10915 0 .2148-.041.29601-.1157.09081-.0838.14189-.2026.14058-.3261-.07684-6.403-.91945-9.02-9.085373-9.1139Z" fill="#F9FBFD"/></g></symbol></svg>