<svg width="44" height="32" viewBox="0 0 44 32" fill="none" xmlns="http://www.w3.org/2000/svg"><path d="M41.4386 25.7195 1.64777 17.2126c-.30576-.0654-.51184.5635-.35346 1.0644C3.83755 26.326 9.85818 32 16.8667 32h23.7374c.1613 0 .3028-.1989.3505-.4911l.7935-4.8935c.0674-.4159-.0814-.8472-.3095-.8959ZM43.8843 11.771c-.1166-.345-.3065-.5746-.5199-.6289L32.3643 8.35935c-.3967-.09881-.77.43404-.8242 1.19516-.0542.76109.2288 1.46239.6299 1.56379l1.2453.3146c.1818.0459.3182.3409.3182.6887v2.1511c0 .4132-.1892.736-.4055.6915l-2.9333-.5969c-.1863-.0362-.3278-.3354-.3278-.6902V7.58714c0-.13778.0212-.27132.0616-.38546l1.2818-3.64809c.1467-.41741.1636-.95173.0448-1.39832-.1195-.44806-.3564-.74025-.6204-.76389l-15.4-1.39131457c-.2472-.00423932-.4869.19761757-.6314.58160157 0 0-2.9304 7.813873-3.5728 9.533533-.077.206-.2061.3159-.3381.288L.811081 8.35527c-.208227-.04174-.413619.08495-.568307.34779C.0887737 8.96752 0 9.34319 0 9.73826c0 1.33994.0916956 2.65334.264774 3.92794.038157.2811.167235.4855.319001.5189L42.015 23.0425c.1752.0375.3395-.1669.3916-.487l1.5613-9.6255c.063-.3909.0323-.8153-.0836-1.159ZM21.1626 4.06427l-.572 7.59963c-.0278.3687-.2002.6317-.396.5941-1.4307-.274-6.8061-1.3467-6.8061-1.3467-.2787-.0571-.4224-.6624-.2596-1.0964l2.519-6.69111c.0726-.19207.1914-.30197.3161-.29072l4.8532.43828c.2156.0194.3762.38659.3454.79292Zm7.9501 1.01433-.451 1.28011c-.0403.11414-.0616.24898-.0616.38676v6.48513c0 .4132-.1892.7361-.4055.6915l-5.8198-1.1826c-.2061-.0417-.3535-.4007-.3242-.7903l.5932-7.87923c.0264-.3548.1914-.61356.3807-.59693l5.8007.52454c.2846.02494.4459.63019.2875 1.08102Zm9.0207 10.0888c0 .4131-.1892.736-.4055.6915 0 0-1.5224-.3257-2.2044-.4786-.1848-.0403-.3234-.3382-.3234-.6902v-2.0119c0-.4201.1951-.7458.4151-.6902l2.2.5565c.1819.0473.3182.3423.3182.6902v1.9327Zm4.0503-.6985-.2721 1.6751c-.0513.3173-.2148.5218-.3894.4871l-1.595-.3242c-.1855-.0375-.3271-.3367-.3271-.6915v-1.8227c0-.4202.1951-.7458.4151-.6902l1.8663.4717c.2244.0571.3689.4829.3022.8947Z" fill="#011C40"/></svg>