<svg width="70" height="38" viewBox="0 0 70 38" xmlns="http://www.w3.org/2000/svg"><path fill-rule="evenodd" clip-rule="evenodd" d="M.903517 31.125 14.6726 12.5429l3.7669 2.0131L27.4026 0l5.5853 6.65881 2.0786-1.70349 8.0534 10.22018 5.7156-6.81359L64.8126 31.125 49.42 11.7689l-2.3383 8.1295 2.1433 6.4265L35.456 7.35558l-.1491 6.47232 7.813 17.2971L28.5064 4.33574l4.2218 14.47876-5.9101-14.09158-3.2475 9.36868.6492-6.11688-8.1185 22.06638.974-9.2911-3.3772-3.7162L.903517 31.125Z"/><path fill-rule="evenodd" clip-rule="evenodd" d="M69.4414 34.0314C47.641 16.428 13.7091 40.6289 0 31.2961c15.0723 13.2254 50.3019-9.1317 69.4414 2.7353Z"/><path fill-rule="evenodd" clip-rule="evenodd" d="M70 35.4157c-17.1044-10.8986-42.5432 4.2681-55.5811.756 14.1278 6.8566 40.4293-8.3356 55.5811-.756Z"/></svg>