<svg width="18" height="18" viewBox="0 0 18 18" fill="none" xmlns="http://www.w3.org/2000/svg"><path d="M18 13.42v3.536c.0001.2532-.0958.497-.2684.6822-.1726.1852-.409.2981-.6616.3158-.437.03-.794.046-1.07.046C7.163 18 0 10.837 0 2c0-.276.015-.633.046-1.07C.0637224.677444.176581.441011.361804.268409.547026.0958068.790823-.00011443 1.044 2.6e-7H4.58c.12404-.0001256.2437.04585874.33573.12901974.09203.083162.14987.197563.16227.32098.023.23.044.413.064.552.19873 1.38692.606 2.73583 1.208 4.001.095.2.033.439-.147.567L4.045 7.112c1.31945 3.0745 3.76955 5.5245 6.844 6.844l1.54-2.154c.0629-.088.1548-.1511.2595-.1783.1047-.0273.2157-.0169.3135.0293 1.265.6009 2.6136 1.0071 4 1.205.139.02.322.042.55.064.1232.0126.2374.0706.3204.1626.0829.092.1288.2115.1286.3354H18Z" fill="#011C40"/></svg>