<svg width="20" height="20" viewBox="0 0 20 20" fill="none" xmlns="http://www.w3.org/2000/svg"><path d="M19.5586 9.55711h.0048c.1218 0 .238-.05109.3205-.14059.0838-.09082.1253-.21263.1144-.33576-.4384-4.82151-4.2554-8.640121-9.0771-9.07935297-.1223-.00960547-.2454.03012627-.3362.11439297-.0908.083829-.1414.202151-.1401.325712.0759 6.407728.9212 9.026088 9.1137 9.115598Zm0 .88549c-8.1925.0895-9.0373 2.7078-9.1133 9.1155-.0013.1236.0493.2419.1402.3258.0812.0746.1873.1161.2964.1161.0131 0 .0266-.0004.0397-.0017 4.8217-.4393 8.6388-4.2575 9.0767-9.0794.0109-.1231-.0302-.2449-.1144-.3358-.0843-.0908-.2017-.1357-.3253-.1405ZM9.04954.00359014C4.24316.455484.438304 4.27322.0021535 9.08163c-.01091468.12313.0301245.24495.1143855.33576.082515.08951.199084.14015.320455.14015h.005239C8.60772 9.46367 9.45077 6.84662 9.52761.443259c.00131-.123562-.04977-.24232-.14058-.32615-.09169-.0838292-.21437-.12487078-.33749-.11351886ZM.441797 10.4421c-.135779-.0153-.242306.0494-.325694.1402-.0838249.0908-.12530073.2126-.11438606.3357C.437867 15.7264 4.24316 19.5442 9.04954 19.9961c.01354.0013.02751.0017.04104.0017.10915 0 .2148-.041.29601-.1157.09081-.0838.14189-.2026.14058-.3261-.07684-6.403-.91945-9.02-9.085373-9.1139Z" fill="#F9FBFD"/></svg>