<svg width="27" height="32" viewBox="0 0 27 32" fill="none" xmlns="http://www.w3.org/2000/svg"><path d="m4.40549 16.3962 8.81101-6.46044c.1997-.12946.4546-.12946.6543 0l8.8546 6.46044V8.68818c.0485-1.05698-.7511-1.95388-1.7858-2.00334-.0154-.00077-.0307-.00128-.0462-.00162H6.23749c-1.0356.02345-1.85655.89997-1.83359 1.95788.00033.0157.00083.03139.00159.04708v7.70802ZM15.7464 0h-4.3619v5.34662h4.3619V0Z" fill="#011C40"/><path d="M24.2956 30.1638 27 21.03l-3.7948-2.7178-.2618-.1337-8.9418-6.3713v18.8022h-.4799l-.8288-.0445V11.8072L0 21.03l2.79163 9.0893 1.61227 1.8711h2.75427s5.08853.0066 6.36363 0c1.298.0216 3.6033 0 3.6033 0h5.6876l1.4829-1.8266Z" fill="#011C40"/></svg>